<?xml version="1.0" standalone="no"?>
<!DOCTYPE svg PUBLIC "-//W3C//DTD SVG 20010904//EN"
 "http://www.w3.org/TR/2001/REC-SVG-20010904/DTD/svg10.dtd">
<svg version="1.0" xmlns="http://www.w3.org/2000/svg"
 width="2048.000000pt" height="609.000000pt" viewBox="0 0 2048.000000 609.000000"
 preserveAspectRatio="xMidYMid meet">

<g transform="translate(0.000000,609.000000) scale(0.100000,-0.100000)"
fill="#000000" stroke="none">
<path d="M7168 6079 c-21 -5 -65 -20 -98 -34 -57 -24 -68 -25 -168 -19 -70 4
-123 12 -154 25 -48 19 -127 24 -163 9 -13 -5 -26 -3 -36 7 -36 31 -178 -26
-241 -96 -20 -23 -41 -41 -47 -41 -6 0 -35 -9 -66 -21 -54 -20 -57 -23 -95
-98 -42 -85 -113 -158 -163 -168 -26 -5 -27 -7 -11 -24 16 -18 15 -21 -10 -57
-59 -85 -150 -152 -207 -152 -58 0 -91 16 -87 42 2 15 13 24 38 31 19 5 37 11
39 13 7 7 -32 33 -50 34 -9 0 -24 9 -34 20 -22 25 -55 26 -55 3 0 -9 9 -27 21
-39 26 -28 19 -41 -35 -65 -58 -26 -72 -24 -82 13 l-9 31 -28 -41 c-35 -50
-50 -56 -89 -36 -16 8 -37 13 -45 10 -13 -5 -11 -12 11 -40 22 -30 23 -35 9
-40 -36 -14 -231 -27 -359 -24 -136 3 -136 3 -159 31 -30 38 -75 67 -104 67
-14 0 -37 -14 -57 -35 -18 -19 -39 -35 -48 -35 -25 0 -46 -12 -46 -26 0 -8 -2
-14 -5 -14 -14 0 -62 30 -78 48 -17 18 -17 21 -1 36 20 20 14 28 -34 41 -50
14 -51 46 -2 61 50 16 49 39 -2 85 -23 22 -55 51 -69 65 l-26 25 -69 -14 c-63
-13 -67 -16 -44 -25 28 -12 80 -58 80 -71 0 -14 -77 -41 -118 -42 -20 -1 -60
6 -87 15 -28 9 -70 18 -95 19 l-44 2 2 -55 c1 -30 5 -79 9 -109 l6 -54 -49 7
c-60 9 -92 28 -100 60 -5 22 -13 25 -71 32 -56 6 -70 4 -104 -16 -38 -21 -42
-21 -80 -6 -41 17 -77 20 -103 10 -20 -8 -21 -30 -1 -38 8 -3 15 -15 15 -27 0
-23 54 -79 76 -79 8 0 14 -4 14 -10 0 -15 -76 -12 -116 5 -24 10 -54 12 -97 9
-86 -8 -117 5 -117 50 0 27 -7 39 -29 55 -29 21 -29 21 -34 1 -9 -34 -70 -52
-174 -51 -86 1 -93 -1 -93 -19 0 -38 -63 -52 -124 -26 -37 15 -62 7 -53 -18 5
-12 0 -16 -19 -16 -40 0 -19 -17 50 -40 83 -27 96 -42 69 -77 -10 -15 -33 -34
-50 -42 -24 -12 -34 -26 -43 -61 -10 -38 -9 -46 4 -56 9 -6 16 -18 16 -26 0
-19 -32 -48 -53 -48 -9 0 -17 -1 -17 -3 0 -1 4 -17 10 -36 9 -31 7 -35 -32
-70 -23 -20 -52 -48 -66 -63 -13 -15 -38 -30 -55 -34 -42 -9 -170 -68 -209
-96 -18 -12 -56 -25 -87 -29 -36 -5 -60 -14 -66 -25 -48 -80 -95 -139 -121
-148 -55 -20 -115 -61 -120 -82 -3 -12 -19 -34 -35 -50 -23 -22 -29 -36 -29
-69 0 -54 -47 -129 -95 -152 -31 -15 -35 -20 -30 -45 6 -24 3 -29 -19 -38 -14
-5 -26 -14 -26 -19 0 -5 -10 -11 -21 -14 -15 -4 -20 -11 -15 -22 3 -9 6 -28 6
-42 0 -18 4 -24 15 -20 8 4 17 2 21 -4 3 -5 14 -7 25 -4 28 9 23 -7 -14 -43
l-33 -32 -44 15 c-51 18 -60 13 -75 -48 -8 -34 -17 -46 -50 -64 -22 -12 -53
-22 -68 -22 -24 -1 -32 -9 -55 -58 -44 -91 -82 -143 -111 -149 -72 -16 -161
-101 -161 -153 0 -12 -7 -38 -15 -57 -8 -20 -13 -39 -10 -43 2 -4 -16 -31 -41
-59 -25 -29 -42 -56 -39 -62 13 -21 -80 2 -106 26 -14 13 -28 24 -32 24 -11 0
-8 -98 3 -105 15 -9 12 -61 -4 -75 -12 -9 -30 -7 -85 11 -77 25 -96 21 -64
-14 12 -12 36 -50 54 -85 30 -59 32 -66 20 -98 -11 -31 -11 -38 4 -55 25 -27
6 -45 -60 -60 -43 -9 -60 -9 -84 1 -21 8 -54 10 -103 5 -108 -9 -231 -26 -241
-32 -4 -3 -1 -16 7 -29 9 -13 16 -36 16 -52 0 -36 29 -63 101 -95 31 -14 59
-29 63 -35 3 -5 -10 -22 -29 -37 -37 -27 -38 -45 -4 -45 11 0 24 -10 30 -23 6
-13 31 -34 56 -46 35 -17 44 -26 42 -44 -1 -12 1 -34 6 -50 6 -21 2 -36 -19
-67 l-26 -39 39 -36 c43 -40 67 -86 57 -111 -5 -14 -16 -16 -60 -11 -30 3 -68
13 -86 22 -17 9 -34 15 -36 12 -2 -2 19 -27 48 -56 59 -60 55 -75 -16 -59 -69
15 -100 -1 -93 -46 10 -61 46 -130 77 -148 17 -9 34 -28 39 -42 6 -13 15 -27
20 -31 19 -11 12 -25 -11 -25 -13 0 -34 -7 -48 -15 -14 -8 -39 -21 -56 -29
-24 -12 -33 -23 -38 -53 -13 -80 -11 -83 42 -83 26 0 53 -5 60 -12 17 -17 -4
-48 -33 -48 -50 0 -63 -85 -18 -118 37 -27 23 -42 -75 -83 -69 -28 -81 -31
-117 -21 -22 6 -41 9 -43 7 -2 -2 5 -16 15 -31 13 -21 18 -47 18 -99 l0 -70
50 1 c66 2 167 19 196 34 13 7 31 21 40 32 16 20 17 20 53 -18 l37 -38 -38
-39 c-21 -21 -64 -57 -95 -78 -32 -22 -58 -44 -58 -49 0 -14 14 -12 28 2 10
10 14 8 18 -9 4 -14 17 -23 40 -27 18 -4 36 -10 38 -15 3 -4 -15 -28 -39 -54
-25 -25 -45 -55 -45 -67 0 -11 -8 -37 -19 -58 -10 -20 -21 -66 -25 -102 -5
-43 -15 -78 -32 -102 -30 -47 -30 -58 1 -58 27 0 75 40 75 62 0 8 20 33 44 57
25 25 46 55 48 69 2 14 8 27 14 29 6 2 39 -15 73 -38 61 -40 64 -41 123 -35
92 11 108 20 106 58 -1 18 0 38 1 43 7 23 0 55 -12 55 -21 0 -57 44 -57 68 0
14 9 27 25 34 20 9 40 6 112 -18 103 -34 110 -46 64 -114 -16 -24 -27 -48 -25
-52 3 -4 31 -8 63 -8 73 0 89 -15 97 -97 11 -105 -11 -161 -46 -118 -46 56
-75 -67 -29 -128 19 -27 20 -30 4 -53 -9 -14 -15 -28 -12 -30 8 -8 60 16 83
39 12 12 29 28 36 35 7 7 33 33 58 58 36 36 50 43 70 39 113 -24 159 -27 213
-11 44 13 61 14 81 4 14 -6 26 -14 26 -17 0 -3 7 -14 15 -25 13 -18 15 -18 41
3 15 11 40 21 56 21 39 0 68 16 68 38 0 10 5 23 11 29 7 7 3 18 -16 37 -32 32
-29 60 7 64 19 2 30 -3 38 -17 13 -25 61 -29 79 -7 9 11 6 18 -14 34 -14 12
-31 23 -38 26 -19 7 13 26 46 26 37 0 34 17 -4 25 -71 16 -1 25 217 30 202 4
233 2 261 -13 18 -9 33 -22 33 -29 0 -24 52 -13 110 22 52 31 65 35 129 35 67
0 74 -2 100 -30 25 -28 30 -29 58 -20 17 6 33 20 36 31 4 14 14 19 39 19 100
1 385 21 418 30 51 14 55 22 25 54 -14 15 -25 29 -25 30 0 2 35 6 78 9 42 2
109 12 147 20 133 30 251 38 670 43 451 5 540 13 566 45 12 16 35 23 97 31 90
12 110 28 35 28 -99 0 -118 24 -62 79 l31 31 162 0 c114 0 178 4 216 15 106
30 122 29 223 -4 l94 -32 51 20 c40 16 64 19 122 14 60 -5 77 -3 108 15 64 35
159 62 221 62 55 0 61 -2 73 -27 l13 -26 150 -4 c214 -6 235 -5 306 12 35 8
80 15 100 15 20 0 58 10 84 21 58 26 116 21 186 -16 33 -17 82 -29 170 -40 68
-9 203 -29 299 -45 217 -36 388 -52 469 -44 75 8 81 24 9 24 -36 0 -63 7 -83
20 -16 11 -43 20 -58 20 -58 0 -18 24 143 87 l163 64 111 -43 c108 -42 114
-43 221 -42 74 1 128 8 165 20 94 30 295 16 326 -23 7 -7 35 -16 65 -20 56 -7
54 -10 32 44 -8 19 113 73 164 73 22 0 94 -10 160 -22 159 -29 459 -32 545 -5
33 10 88 17 134 17 61 0 75 3 66 12 -18 18 -15 27 15 39 20 7 59 4 156 -12
110 -19 136 -20 176 -10 91 24 97 24 119 0 21 -22 24 -22 174 -15 101 5 180
14 232 28 97 25 158 26 451 9 166 -9 326 -11 575 -6 560 13 959 11 1137 -4
173 -15 681 -9 833 10 41 5 347 13 680 18 599 9 660 12 1000 51 96 11 294 27
440 35 461 26 450 25 472 47 32 32 69 38 358 53 293 16 340 21 340 38 0 7 -89
8 -277 3 -198 -5 -275 -4 -268 3 6 6 110 47 230 91 l220 81 155 -2 c195 -3
383 12 407 32 10 8 35 23 56 33 20 11 37 23 37 28 0 14 59 35 118 43 28 4 52
11 52 17 0 6 -13 8 -32 5 -103 -18 -208 -19 -260 -2 -103 32 -138 47 -132 56
3 5 35 9 72 9 37 1 84 7 105 14 32 12 47 12 95 0 84 -20 108 -18 129 11 l18
25 198 -11 c191 -12 199 -12 225 8 15 10 36 23 47 27 l20 8 -20 8 c-11 5 -40
9 -65 10 -60 2 -101 18 -49 19 28 1 41 7 54 27 9 14 14 28 12 30 -3 3 -74 11
-158 19 -246 23 -241 22 -237 53 2 20 14 33 46 50 23 13 42 30 42 38 0 8 6 14
14 14 8 0 21 8 28 18 17 24 56 45 68 37 6 -3 10 -25 10 -48 0 -32 3 -39 11
-27 8 12 12 12 16 2 3 -9 15 -3 39 18 19 16 40 30 47 30 7 0 1 9 -12 19 l-23
18 29 33 29 32 177 6 c97 3 177 8 177 13 0 7 -59 22 -140 35 -22 4 -40 10 -40
14 0 5 -3 15 -6 23 -9 25 32 39 137 47 53 4 103 11 109 15 8 5 1 18 -22 42
-32 34 -32 42 5 55 4 2 9 17 10 33 2 26 -2 31 -38 43 -38 13 -132 8 -262 -15
-37 -6 -45 -23 -10 -23 12 -1 33 -7 47 -15 23 -14 14 -14 -90 -8 -133 9 -321
8 -398 -2 -31 -4 -72 -2 -98 4 -39 10 -67 7 -223 -24 -207 -40 -386 -57 -379
-34 2 8 17 21 34 29 16 9 41 24 55 33 15 10 62 30 105 44 77 25 86 26 404 30
179 2 331 6 339 9 10 3 11 7 1 18 -16 21 3 54 37 62 15 4 147 4 295 0 176 -5
268 -3 268 3 0 14 -51 27 -197 53 -68 12 -123 24 -123 28 0 12 108 40 206 54
54 7 100 19 102 25 2 6 19 11 38 11 27 0 34 4 34 20 0 33 -54 52 -184 62 -71
6 -130 16 -143 24 -12 8 -45 14 -73 14 -28 0 -60 5 -71 10 -22 12 -26 40 -5
40 8 0 24 13 35 29 19 26 25 28 113 34 51 3 108 11 127 18 25 9 103 11 302 6
l267 -6 6 33 c9 47 65 101 131 125 31 12 59 21 63 21 5 0 18 9 30 20 23 22 30
74 12 85 -19 11 -10 26 21 37 30 10 31 12 25 55 -3 24 -10 53 -16 63 -19 36
-89 63 -172 68 -83 5 -97 -3 -53 -32 27 -18 25 -36 -4 -36 -10 0 -30 -11 -44
-24 -23 -22 -30 -23 -56 -13 -22 8 -39 8 -69 -2 -38 -13 -92 -11 -190 6 -30 5
-31 7 -18 22 8 9 17 34 21 56 12 79 14 83 47 94 18 6 72 14 120 18 84 6 106
14 73 27 -23 9 -18 32 15 63 36 34 37 46 8 68 -23 17 -23 17 12 10 104 -19 98
-19 248 11 17 4 21 8 14 17 -6 7 -9 34 -7 61 3 42 7 52 29 63 16 9 29 26 33
43 5 28 7 29 50 23 41 -5 45 -4 41 13 -3 18 -19 19 -273 25 -263 6 -374 17
-400 39 -7 6 -16 23 -20 37 -7 29 6 43 42 43 14 0 21 6 21 18 0 9 0 22 2 27 8
32 -21 44 -152 60 -53 7 -65 29 -25 44 12 5 106 12 207 16 225 8 368 20 438
35 121 27 33 49 -246 60 -119 5 -243 9 -275 10 -69 0 -80 15 -46 64 32 47 51
57 131 63 58 5 72 10 76 25 2 10 16 21 31 24 95 21 99 24 106 55 4 18 16 35
31 41 30 14 31 28 2 28 -17 0 -19 3 -10 12 7 7 12 25 12 41 0 29 1 29 41 23
22 -4 80 -30 128 -60 191 -115 279 -124 202 -21 l-29 39 29 27 c16 15 47 30
69 34 30 5 48 17 74 48 l34 41 71 -12 c38 -6 77 -9 85 -6 20 8 20 28 1 44 -21
17 -19 54 5 75 11 10 20 22 20 26 0 14 -44 23 -107 20 -34 -1 -64 2 -68 8 -3
6 17 21 49 35 31 14 56 30 56 35 0 13 -47 15 -54 2 -7 -11 -149 -81 -166 -81
-7 0 -28 -17 -48 -37 -31 -33 -40 -37 -78 -35 -26 1 -44 -3 -44 -9 0 -24 -59
-67 -112 -83 -61 -17 -77 -31 -59 -49 6 -6 11 -15 11 -19 0 -23 -87 16 -95 43
-5 16 -16 19 -60 19 -57 0 -75 -11 -55 -35 19 -23 6 -39 -52 -72 -30 -17 -71
-52 -92 -78 l-39 -47 -61 7 c-33 3 -64 9 -68 11 -10 6 17 61 45 92 17 18 18
22 5 22 -9 0 -18 8 -21 19 -4 16 -19 19 -107 26 -145 10 -157 17 -95 55 65 40
36 39 -77 -2 -121 -44 -181 -58 -323 -77 -49 -7 -148 -23 -220 -36 -115 -20
-173 -24 -512 -29 l-381 -6 -32 27 -33 27 54 14 c30 7 84 21 121 29 49 12 69
22 74 35 3 11 21 26 40 35 51 25 42 36 -23 29 -158 -16 -1483 -66 -1757 -66
-116 0 -327 5 -469 11 -227 11 -277 10 -435 -5 -276 -27 -326 -35 -310 -51 3
-3 167 -10 364 -15 307 -8 735 -38 750 -53 10 -10 -1517 -15 -1671 -6 -93 5
-393 14 -665 19 -383 7 -510 12 -560 24 -46 11 -121 15 -253 16 -167 0 -193 2
-233 20 -90 42 -229 46 -439 15 -145 -22 -338 -29 -365 -15 -21 11 -26 10 -41
-9 -21 -26 -45 -27 -58 -2 -18 32 -65 44 -149 38 -95 -8 -161 -27 -275 -79
-95 -43 -85 -43 -159 -3 -10 5 -18 13 -18 18 0 4 -4 6 -10 2 -6 -4 -6 -15 1
-32 15 -40 5 -53 -42 -53 -41 0 -78 27 -79 58 0 7 -15 12 -41 12 -28 0 -39 4
-37 12 7 19 -77 41 -149 39 -45 -2 -76 4 -109 18 -26 12 -63 21 -82 21 -51 0
-147 -19 -213 -42 -31 -11 -74 -18 -95 -16 -24 2 -43 -2 -49 -10 -13 -16 -50
-8 -84 17 -20 16 -22 21 -11 40 10 20 8 27 -17 53 -21 22 -23 27 -9 22 18 -7
19 -4 12 36 -4 24 -17 61 -29 82 -25 45 -16 71 24 76 16 2 29 13 37 32 7 15
38 45 68 66 35 24 53 43 49 52 -7 19 106 134 160 163 l45 24 36 -20 c20 -11
78 -64 128 -118 165 -179 274 -213 530 -167 162 30 207 27 291 -15 96 -48 217
-63 317 -39 37 9 79 26 92 38 13 11 32 29 42 38 11 9 24 23 30 30 5 7 21 21
35 30 19 13 21 19 11 26 -8 5 -116 13 -242 17 -213 6 -233 5 -304 -14 -90 -25
-142 -26 -256 -6 -47 8 -153 19 -235 24 -83 5 -164 15 -181 21 -32 11 -80 62
-143 152 -45 63 -75 74 -156 60 -34 -7 -74 -12 -88 -12 -13 0 -27 -7 -31 -15
-8 -21 -118 -91 -181 -114 -28 -11 -69 -31 -89 -44 -79 -54 -361 -137 -465
-137 -32 0 -51 4 -45 9 5 4 66 27 137 51 70 24 135 49 145 56 30 22 -153 5
-236 -23 -94 -31 -141 -28 -162 9 -22 40 -8 55 85 94 58 24 96 33 137 34 69 0
88 7 88 30 0 18 26 30 71 30 33 0 79 45 79 76 l0 23 -52 -19 c-29 -11 -84 -31
-123 -45 -94 -34 -180 -40 -279 -21 -82 16 -109 14 -61 -4 35 -13 27 -22 -18
-22 -56 0 -79 11 -72 33 6 17 1 19 -39 19 -48 0 -103 16 -92 27 4 4 70 13 148
20 l141 12 126 63 c89 45 127 69 129 83 2 11 17 34 34 52 29 30 31 53 4 53 -7
0 -39 -23 -72 -52 -80 -70 -205 -127 -303 -140 -78 -10 -146 -5 -167 13 -6 5
-60 16 -119 23 -59 8 -112 19 -118 25 -14 14 -57 14 -57 0 0 -8 -18 -10 -54
-7 -42 4 -74 16 -145 57 l-91 52 -219 -8 c-121 -4 -235 -5 -253 -1 -18 3 -39
3 -48 -1 -25 -14 -40 -1 -40 35 0 50 -29 113 -59 128 -14 8 -46 17 -71 21 -25
4 -53 11 -62 16 -12 7 -21 3 -31 -12 -24 -33 -60 -22 -68 21 -4 19 -3 40 2 46
5 6 6 14 2 17 -9 9 -90 7 -135 -4z m-99 -123 c10 -12 8 -18 -11 -29 -42 -27
-65 -29 -97 -9 -24 15 -29 21 -19 29 29 24 110 29 127 9z m-153 -51 c20 -31
10 -47 -24 -39 -41 10 -48 21 -27 44 23 26 31 25 51 -5z m-436 -96 c0 -10 -28
-49 -65 -91 -8 -10 -26 -18 -40 -18 -23 0 -24 2 -15 20 32 60 120 125 120 89z
m716 -113 c18 -14 17 -16 -26 -34 -97 -41 -138 -53 -165 -50 -63 7 -29 46 69
80 62 21 96 22 122 4z m1012 -82 c43 -16 55 -40 26 -51 -9 -3 -31 1 -48 9 -17
9 -52 23 -78 33 -27 9 -48 21 -48 26 0 13 94 2 148 -17z m399 -24 c-16 -5 -38
-5 -50 0 -17 7 -10 9 28 9 43 -1 46 -2 22 -9z m-239 -16 c32 -9 27 -24 -8 -24
-20 0 -30 5 -30 15 0 17 4 18 38 9z m-4014 -60 c41 -16 -2 -72 -44 -59 -24 8
-25 23 -3 47 18 20 23 21 47 12z m-234 -14 c0 -5 -9 -10 -20 -10 -11 0 -20 5
-20 10 0 6 9 10 20 10 11 0 20 -4 20 -10z m4435 -40 c3 -5 2 -10 -4 -10 -5 0
-13 5 -16 10 -3 6 -2 10 4 10 5 0 13 -4 16 -10z m-4430 -33 c29 -22 1 -30 -55
-16 -32 8 -46 16 -38 21 20 12 72 9 93 -5z m4058 6 c9 -8 -22 -43 -39 -43 -9
0 -10 5 -1 25 12 24 27 31 40 18z m-95 -49 c4 -26 -3 -28 -101 -45 -60 -10
-80 -10 -89 -1 -17 17 -1 30 68 52 76 25 118 23 122 -6z m-4488 -14 c0 -5 -5
-10 -11 -10 -5 0 -7 5 -4 10 3 6 8 10 11 10 2 0 4 -4 4 -10z m2000 -15 c10
-13 9 -15 -9 -15 -12 0 -21 6 -21 15 0 8 4 15 9 15 5 0 14 -7 21 -15z m1230 5
c18 -9 40 -58 40 -88 0 -12 -12 -14 -70 -9 -62 5 -78 3 -141 -24 -81 -33 -104
-36 -113 -14 -11 30 11 61 52 73 21 7 48 12 58 12 11 0 29 6 40 14 11 8 37 17
57 21 21 4 40 11 43 16 7 11 11 11 34 -1z m-2760 -15 c29 -15 40 -35 21 -35
-24 0 -61 21 -61 35 0 19 4 19 40 0z m240 -10 c0 -9 -9 -15 -22 -15 -21 0 -21
0 -2 15 24 18 24 18 24 0z m2975 5 c3 -5 2 -10 -4 -10 -5 0 -13 5 -16 10 -3 6
-2 10 4 10 5 0 13 -4 16 -10z m16 -40 c45 0 31 -24 -16 -28 -29 -3 -43 1 -52
14 -20 27 -16 35 13 24 14 -6 39 -10 55 -10z m-341 -20 c0 -5 -4 -10 -9 -10
-6 0 -13 5 -16 10 -3 6 1 10 9 10 9 0 16 -4 16 -10z m615 -59 l40 -17 -48 -19
c-46 -17 -48 -17 -67 0 -11 10 -20 29 -20 43 0 21 3 23 28 17 15 -3 45 -14 67
-24z m-1861 -20 c108 -7 134 -22 69 -40 -54 -15 -153 -13 -183 4 -14 8 -42 14
-62 15 -25 0 -38 5 -38 13 0 24 14 29 65 22 28 -4 95 -10 149 -14z m-438 -5
c18 -14 18 -15 1 -22 -17 -6 -85 0 -94 10 -3 3 -2 9 2 15 9 16 68 13 91 -3z
m3046 -11 c117 -27 242 -75 333 -127 l90 -52 123 -6 c112 -5 125 -7 140 -27
11 -14 38 -27 76 -35 69 -15 88 -38 32 -38 -20 0 -45 5 -56 12 -15 10 -29 9
-70 -4 -42 -14 -49 -14 -39 -2 15 18 1 18 -47 -2 -30 -13 -57 -15 -114 -11
-139 11 -190 41 -115 68 38 14 44 24 19 33 -22 9 -346 55 -459 66 -144 13
-223 64 -152 98 25 12 39 11 110 -6 45 -12 83 -19 85 -17 2 2 -14 13 -37 25
-78 39 -36 53 81 25z m-682 -19 c0 -17 -24 -28 -45 -20 -20 8 -19 21 3 27 32
9 42 7 42 -7z m-3144 -9 c16 -15 -11 -20 -116 -21 -105 -1 -141 10 -88 26 28
9 195 5 204 -5z m3099 -37 c20 -32 -22 -64 -95 -76 -45 -7 -57 11 -15 22 17 4
25 13 25 28 0 13 3 26 7 29 10 11 71 8 78 -3z m-4381 -9 c5 -8 -43 -31 -65
-31 -23 0 -6 29 19 33 15 2 30 5 34 6 4 0 9 -3 12 -8z m4545 -55 c9 -10 9 -16
1 -21 -17 -11 -60 4 -60 20 0 19 44 20 59 1z m-3474 -16 c-3 -5 -11 -10 -16
-10 -6 0 -7 5 -4 10 3 6 11 10 16 10 6 0 7 -4 4 -10z m3621 -38 c22 -9 52 -25
65 -35 24 -18 23 -18 -43 -12 -41 3 -69 1 -73 -5 -17 -27 -85 9 -85 44 0 27
78 32 136 8z m199 -2 c3 -5 -3 -10 -14 -10 -12 0 -21 5 -21 10 0 6 6 10 14 10
8 0 18 -4 21 -10z m69 -96 c9 -3 16 -13 16 -21 0 -11 7 -13 29 -8 24 5 32 2
41 -14 10 -20 8 -21 -32 -20 -102 2 -208 69 -110 69 22 0 47 -3 56 -6z m1296
-90 c7 -19 9 -38 5 -42 -10 -10 -35 29 -35 55 0 35 17 28 30 -13z m2524 9 c20
-10 25 -18 18 -25 -12 -12 -186 -17 -198 -6 -13 14 17 37 59 46 47 10 78 6
121 -15z m-802 -14 c26 -17 48 -35 48 -39 0 -11 -57 -30 -90 -30 -15 0 -33 7
-40 15 -6 7 -32 17 -56 21 -42 6 -63 19 -51 31 11 11 83 32 111 33 16 0 51
-14 78 -31z m-3137 11 c4 -6 -6 -10 -24 -10 -16 0 -33 5 -36 10 -4 6 6 10 24
10 16 0 33 -4 36 -10z m10815 -20 c-8 -5 -24 -10 -35 -10 -32 0 -63 -27 -67
-58 -2 -21 -9 -28 -32 -30 -35 -4 -50 9 -42 36 8 23 115 71 161 71 23 1 26 -2
15 -9z m-10705 -29 l40 -19 -60 -1 c-63 -1 -92 9 -81 28 11 17 56 13 101 -8z
m7435 -1 c0 -5 -4 -10 -9 -10 -6 0 -13 5 -16 10 -3 6 1 10 9 10 9 0 16 -4 16
-10z m-6336 -6 c9 -3 16 -13 16 -21 0 -21 -54 -13 -58 10 -4 18 13 22 42 11z
m9394 -81 c-2 -22 -10 -29 -38 -36 -19 -5 -61 -18 -93 -29 -43 -16 -72 -19
-113 -15 -31 3 -59 8 -61 11 -10 10 41 45 82 57 73 22 150 37 188 38 36 1 38
-1 35 -26z m-9278 7 c0 -5 -4 -10 -9 -10 -6 0 -13 5 -16 10 -3 6 1 10 9 10 9
0 16 -4 16 -10z m7645 -20 c-44 -11 -318 -11 -335 0 -10 6 49 9 175 9 109 -1
177 -5 160 -9z m-7818 -56 c-3 -3 -12 -4 -19 -1 -8 3 -5 6 6 6 11 1 17 -2 13
-5z m-154 -20 c54 -8 53 -24 -2 -24 -20 0 -42 -5 -48 -11 -8 -8 -14 -6 -22 9
-17 32 -6 36 72 26z m-158 -24 c19 -7 18 -9 -8 -19 -35 -13 -39 -14 -72 -1
-14 5 -23 14 -20 20 7 12 71 12 100 0z m3182 -41 c75 -18 102 -20 178 -13 164
15 586 9 753 -10 122 -14 196 -17 365 -12 117 3 318 9 446 12 237 6 564 -7
691 -28 69 -11 160 -45 160 -59 0 -5 -6 -9 -12 -9 -7 0 -105 -5 -218 -10 -220
-11 -298 -7 -280 15 13 15 -3 30 -21 19 -6 -3 -198 -8 -427 -10 -321 -3 -440
-7 -518 -20 l-101 -16 -55 29 c-45 25 -72 31 -153 37 -53 3 -106 11 -117 17
-69 37 -278 49 -418 24 -109 -20 -226 -20 -315 -1 -102 21 -118 30 -98 49 11
12 48 8 140 -14z m-226 -10 c20 -20 20 -23 5 -31 -12 -7 -29 -2 -61 17 -25 14
-45 28 -45 30 0 3 18 5 40 5 28 0 47 -7 61 -21z m6549 1 c-20 -13 -50 -13 -50
0 0 6 15 10 33 10 24 0 28 -3 17 -10z m-2518 -78 c6 -6 -36 -12 -104 -16 -62
-4 -192 -12 -288 -18 -181 -11 -532 -6 -585 10 -21 6 34 12 195 21 124 7 241
14 260 16 69 7 513 -4 522 -13z m1858 -10 c0 -14 -333 -41 -565 -46 -158 -4
-203 -3 -160 4 33 5 103 17 155 25 130 21 138 22 368 23 111 1 202 -2 202 -6z
m-6882 -21 c10 -6 6 -10 -15 -14 -32 -6 -38 -3 -28 12 7 13 25 14 43 2z
m-1954 -94 c22 -12 41 -27 43 -33 5 -16 -52 -37 -82 -30 -37 9 -99 67 -83 77
24 16 83 9 122 -14z m9574 -58 c23 6 54 11 68 11 22 0 25 -4 22 -27 -5 -41
-42 -54 -186 -63 -119 -8 -129 -7 -161 12 l-34 21 39 20 c56 29 91 34 154 24
38 -7 68 -6 98 2z m-8438 -23 c16 -8 37 -9 55 -4 l29 7 -31 -30 c-30 -31 -31
-31 -66 -14 -19 9 -45 27 -58 41 l-23 24 35 -6 c19 -4 45 -12 59 -18z m-113
-28 c34 -24 63 -46 63 -50 0 -12 -68 -10 -75 2 -9 14 -66 12 -94 -4 -29 -16
-61 -10 -61 13 0 37 47 79 90 80 8 1 43 -18 77 -41z m1892 22 c23 -13 -24 -23
-72 -15 -61 9 -77 15 -77 27 0 11 125 2 149 -12z m6846 -10 c3 -5 0 -10 -8
-10 -8 0 -29 -3 -46 -6 -19 -4 -31 -2 -31 4 0 19 74 29 85 12z m-16187 -26 c3
-19 -3 -23 -49 -29 -39 -6 -61 -16 -93 -44 -22 -20 -42 -39 -44 -43 -2 -4 -32
-21 -68 -38 -44 -22 -64 -37 -64 -50 0 -10 -9 -22 -21 -25 -26 -9 -35 0 -20
18 9 11 8 17 -4 27 -23 19 -19 33 25 75 35 34 48 40 112 50 73 11 73 11 82 47
l9 37 66 -2 c59 -2 66 -4 69 -23z m15432 16 c12 -7 12 -10 1 -10 -8 0 -11 -6
-7 -15 4 -13 1 -12 -20 2 -24 15 -29 15 -72 0 -51 -18 -148 -22 -172 -7 -12 8
-12 10 3 16 54 20 242 30 267 14z m-6247 -32 c68 -10 91 -9 173 7 70 14 97 16
106 7 33 -33 -90 -78 -187 -68 -56 6 -61 4 -70 -16 -13 -29 -105 -67 -161 -68
-52 0 -95 18 -157 65 -46 36 -50 37 -110 31 -40 -4 -53 -3 -36 3 52 17 158 23
214 11 62 -13 85 -4 85 32 0 17 5 19 33 14 17 -3 67 -11 110 -18z m2002 -2
c28 -12 66 -33 85 -45 l35 -23 -85 5 c-67 4 -97 10 -140 32 -45 23 -61 26
-104 21 -28 -4 -72 -14 -97 -23 -51 -18 -123 -12 -155 12 -17 13 -8 14 81 15
57 1 115 7 135 15 19 7 71 14 115 14 64 1 90 -4 130 -23z m925 -43 c217 -1
411 -2 430 -2 417 7 740 -9 815 -41 49 -21 49 -21 30 -1 -18 21 -18 21 8 21
15 0 27 -4 27 -10 0 -5 10 -10 23 -10 12 -1 33 -7 47 -15 14 -8 41 -15 60 -15
26 0 31 -3 20 -10 -20 -13 -547 -13 -555 0 -3 6 1 10 9 10 9 0 16 4 16 9 0 17
-264 28 -319 12 -20 -5 -25 -13 -25 -41 l-1 -35 -130 -8 c-192 -12 -334 -4
-376 22 -32 20 -49 21 -254 21 -241 0 -328 7 -322 24 2 6 13 12 25 14 49 7 16
20 -70 27 -94 7 -128 17 -128 37 0 8 38 9 138 2 75 -5 315 -10 532 -11z m2593
10 c-7 -2 -19 -2 -25 0 -7 3 -2 5 12 5 14 0 19 -2 13 -5z m-6768 -44 c28 -23
71 -55 98 -71 52 -33 59 -48 24 -48 -35 0 -127 29 -127 40 0 6 5 10 10 10 6 0
10 5 10 10 0 6 -18 10 -40 10 -31 0 -47 6 -65 26 -27 30 -32 50 -12 57 30 13
56 4 102 -34z m2470 31 c-8 -13 -125 -13 -145 0 -10 7 11 10 68 10 53 0 81 -4
77 -10z m4170 -1 c11 -16 2 -17 -25 -2 -24 12 -24 13 -3 13 12 0 25 -5 28 -11z
m1560 2 c-30 -27 -257 -68 -291 -52 -30 13 -31 29 -1 36 77 19 308 31 292 16z
m-1965 -11 c0 -12 -17 -12 -45 0 -17 7 -15 9 13 9 17 1 32 -3 32 -9z m75 0 c4
-6 -7 -10 -24 -10 -17 0 -31 5 -31 10 0 6 11 10 24 10 14 0 28 -4 31 -10z
m163 4 c12 -4 22 -13 22 -22 0 -8 11 -25 24 -37 l24 -22 -66 -7 c-37 -3 -105
-6 -152 -6 -84 1 -85 1 -55 17 38 20 65 48 65 68 0 12 12 15 58 15 31 0 67 -3
80 -6z m82 -4 c0 -5 -4 -10 -9 -10 -6 0 -13 5 -16 10 -3 6 1 10 9 10 9 0 16
-4 16 -10z m-5845 -9 c-16 -15 -110 -39 -178 -47 -34 -4 -77 -12 -94 -20 -30
-12 -33 -11 -33 5 0 10 11 23 25 29 52 24 301 53 280 33z m4979 0 c9 -13 -19
-21 -75 -21 -57 0 -66 17 -11 23 71 7 81 7 86 -2z m1154 -17 c32 -6 17 -25
-18 -22 -15 1 -35 -4 -43 -10 -12 -10 -16 -10 -20 0 -4 10 -7 10 -15 -1 -6 -9
-17 -11 -28 -6 -18 6 -17 8 4 16 12 4 22 14 22 22 0 13 40 13 98 1z m377 -3
c3 -5 0 -13 -7 -18 -20 -12 -298 -17 -310 -5 -7 7 2 13 28 17 22 4 44 8 49 10
23 8 234 4 240 -4z m-6977 -29 c2 -8 -12 -12 -47 -12 -53 0 -67 15 -29 29 27
10 70 0 76 -17z m1506 -3 c58 -16 27 -29 -69 -29 -93 0 -125 7 -125 26 0 17
135 19 194 3z m4856 -5 c0 -9 -5 -14 -12 -12 -18 6 -21 28 -4 28 9 0 16 -7 16
-16z m-5801 -3 c24 -15 1 -31 -44 -31 -52 0 -66 14 -28 28 36 13 55 14 72 3z
m2096 -19 c87 -12 32 -25 -109 -25 -72 -1 -158 3 -191 8 l-60 9 40 7 c53 8
257 9 320 1z m-665 -57 c41 -9 85 -19 98 -21 13 -3 20 -8 18 -13 -12 -18 -58
-17 -97 2 -38 19 -46 19 -106 7 -79 -15 -161 -16 -208 0 -130 43 122 65 295
25z m6253 0 c-1 -5 -13 -12 -25 -14 -43 -6 -328 11 -328 20 0 6 74 8 178 7
111 -2 176 -7 175 -13z m535 0 c6 -3 12 -11 12 -20 0 -18 -38 -36 -128 -61
-57 -16 -63 -16 -96 0 -32 15 -38 15 -78 0 -61 -23 -95 -28 -102 -15 -4 6 2
18 14 28 20 17 29 39 11 29 -5 -3 -20 3 -32 13 -29 24 -19 29 61 33 69 4 321
-2 338 -7z m-7818 -25 c-8 -5 -28 -9 -45 -9 -29 1 -29 1 -5 9 14 4 34 8 45 9
16 1 17 -1 5 -9z m2340 -7 l65 -7 -55 -6 c-59 -7 -232 -3 -290 7 -102 17 123
22 280 6z m-5226 -69 c20 -8 11 -24 -15 -24 -19 0 -25 11 -12 23 8 8 8 8 27 1z
m1891 -24 c-7 -11 -73 -25 -82 -16 -8 7 36 25 65 25 13 1 21 -3 17 -9z m8049
-389 c7 -11 -22 -23 -36 -15 -6 4 -5 10 3 15 18 11 26 11 33 0z m-556 -58
c-16 -2 -40 -2 -55 0 -16 2 -3 4 27 4 30 0 43 -2 28 -4z m-6688 -208 c54 -28
32 -46 -53 -44 -105 3 -151 29 -85 48 50 14 106 13 138 -4z m-270 -63 c25 -20
20 -42 -8 -42 -24 0 -62 28 -62 46 0 20 43 18 70 -4z m1423 3 c-3 -13 -53 -20
-53 -7 0 15 13 23 35 20 11 -2 19 -7 18 -13z m-11033 -250 c59 -15 114 -63
108 -93 -3 -14 -19 -17 -98 -20 -116 -4 -133 0 -148 33 -20 45 -15 62 26 78
46 20 45 20 112 2z m-175 -215 c7 -12 -2 -12 -30 0 -19 8 -19 9 2 9 12 1 25
-3 28 -9z m16327 -2 c-16 -16 -94 -16 -99 0 -3 9 11 12 53 12 44 0 55 -3 46
-12z m-17129 -86 c18 -16 18 -17 -2 -33 -17 -14 -29 -15 -62 -8 -54 12 -104
39 -93 49 25 24 128 18 157 -8z m10307 -77 c-25 -13 -69 -29 -97 -35 -53 -11
-103 -5 -87 10 17 16 139 48 184 49 l45 0 -45 -24z m1313 -25 c8 -7 -44 -18
-166 -34 -39 -5 -97 10 -97 25 0 9 20 15 75 23 43 6 178 -4 188 -14z m-2762
-30 c10 -6 19 -17 19 -25 0 -22 -188 -21 -216 0 -17 13 -17 14 -1 15 9 0 25
-5 35 -11 15 -9 30 -7 73 9 64 25 65 25 90 12z m5289 -20 c-14 -4 -41 -8 -60
-8 -28 -1 -31 1 -15 8 11 5 38 8 60 8 34 0 36 -1 15 -8z m-2315 -10 c3 -5 -1
-10 -9 -10 -9 0 -16 5 -16 10 0 6 4 10 9 10 6 0 13 -4 16 -10z m516 -7 c28 -5
30 -7 14 -14 -40 -16 -155 -7 -155 12 0 11 93 12 141 2z m691 -15 c-8 -8 -70
-15 -180 -20 -92 -3 -210 -9 -262 -13 -64 -4 -90 -3 -80 4 8 5 17 8 20 6 4 -2
24 1 46 7 57 16 171 25 329 27 110 1 136 -2 127 -11z m3548 3 c0 -18 -238 -51
-368 -51 -162 0 129 54 316 59 28 0 52 -3 52 -8z m-7964 -12 c32 -7 63 -15 68
-20 15 -13 -42 -22 -109 -17 -79 7 -96 16 -64 34 30 16 32 17 105 3z m1894 -9
c0 -22 -25 -27 -50 -10 -13 9 -13 11 0 20 25 17 50 12 50 -10z m1008 3 c-10
-2 -26 -2 -35 0 -10 3 -2 5 17 5 19 0 27 -2 18 -5z m5777 -13 c0 -12 -16 -16
-74 -18 -73 -3 -119 12 -70 22 13 3 33 7 44 10 43 9 100 1 100 -14z m-5581 -6
c9 -3 16 -10 16 -15 0 -11 -40 -11 -95 -2 l-40 7 35 7 c50 9 66 10 84 3z
m5755 -10 c2 -2 -12 -4 -33 -4 -22 0 -35 4 -31 10 5 9 52 4 64 -6z m-7059 -14
c11 -7 -5 -10 -52 -10 -37 0 -70 5 -73 10 -8 13 105 13 125 0z m5485 -50 c4
-6 -5 -10 -20 -10 -15 0 -24 4 -20 10 3 6 12 10 20 10 8 0 17 -4 20 -10z
m-115 -10 c0 -18 -42 -28 -152 -35 -70 -5 -112 -4 -124 4 -15 8 -16 11 -4 12
20 1 263 26 273 28 4 0 7 -4 7 -9z m-15616 -52 c13 -38 3 -44 -44 -23 -57 26
-51 57 10 52 17 -1 28 -10 34 -29z m14340 -7 c3 -5 -9 -11 -27 -15 -64 -13
-281 -27 -311 -20 l-31 7 35 9 c19 5 91 13 160 17 69 4 135 9 147 9 12 1 24
-2 27 -7z m-4306 -41 c24 -11 41 -24 37 -30 -3 -6 -47 -10 -98 -10 -51 0 -117
-7 -147 -15 -35 -9 -58 -11 -64 -5 -6 6 -23 10 -40 10 -59 0 -9 21 105 45 140
29 153 29 207 5z m3877 0 c-3 -5 -12 -7 -20 -3 -21 7 -19 13 6 13 11 0 18 -4
14 -10z m-938 -56 c46 -6 64 -21 42 -35 -21 -13 -129 -11 -129 2 0 8 -20 10
-67 6 -78 -6 -145 3 -150 20 -7 19 169 23 304 7z m-3436 -28 c-30 -36 -181
-62 -181 -32 0 27 15 31 174 44 15 2 16 -1 7 -12z m129 -16 c0 -15 -31 -27
-87 -35 -36 -5 -53 -3 -53 4 0 6 1 11 3 11 1 0 20 7 42 15 46 16 95 19 95 5z
m6115 -461 c-49 -14 -527 -53 -567 -45 -46 8 -49 22 -6 31 87 20 635 33 573
14z m-5815 -107 c0 -13 -12 -22 -22 -16 -10 6 -1 24 13 24 5 0 9 -4 9 -8z
m-805 -92 c19 -7 18 -8 -5 -14 -146 -35 -211 -34 -167 2 21 18 138 26 172 12z
m6694 -20 c-20 -11 -201 -41 -422 -70 -123 -16 -162 -17 -176 -8 -15 9 -50 8
-158 -5 -76 -9 -187 -17 -248 -17 -147 -1 -333 -16 -423 -35 -40 -8 -173 -22
-295 -30 -122 -8 -247 -17 -278 -21 -30 -3 -336 -7 -680 -9 -384 -2 -718 -9
-868 -18 -361 -22 -613 -4 -665 47 -17 18 -21 26 -10 26 8 0 25 7 38 15 55 36
368 44 788 19 188 -11 376 -14 603 -12 293 4 335 6 375 23 42 17 92 19 670 26
538 5 651 9 810 27 157 18 398 33 740 45 183 7 215 6 199 -3z m-7769 -20 c0
-10 -32 -30 -49 -30 -20 0 -11 20 12 30 29 12 37 12 37 0z m2705 -63 c61 -19
143 -40 183 -47 39 -7 72 -16 72 -20 0 -11 -91 -19 -291 -26 l-175 -7 -40 26
c-21 14 -59 31 -84 38 l-45 12 34 14 c33 14 47 14 98 -2 18 -6 21 -4 16 14 -5
21 2 24 67 34 31 5 32 5 165 -36z m-2650 -62 l-30 -25 70 0 c92 0 110 -11 64
-39 -19 -12 -49 -21 -67 -21 -25 0 -32 -4 -30 -16 5 -26 -96 -74 -157 -74 -59
0 -83 11 -63 27 13 11 88 36 141 47 29 7 32 13 17 36 -8 13 -18 12 -72 -9
-143 -54 -163 -33 -25 27 103 44 169 71 177 71 3 0 -8 -11 -25 -24z m2215 15
c0 -19 -84 -32 -168 -26 -89 8 -112 13 -112 27 0 5 63 9 140 9 83 0 140 -4
140 -10z m-412 -22 c-3 -7 -40 -28 -84 -47 -84 -36 -205 -54 -218 -32 -4 6
-24 11 -44 12 -20 0 -45 4 -55 8 -38 14 36 33 188 47 83 8 157 16 165 18 32 8
52 6 48 -6z m-9778 -12 c0 -3 -4 -8 -10 -11 -5 -3 -10 -1 -10 4 0 6 5 11 10
11 6 0 10 -2 10 -4z m10315 -15 c3 -5 2 -12 -2 -14 -12 -8 -63 4 -63 14 0 12
57 12 65 0z m-4081 -17 c41 -8 122 -18 178 -22 l103 -7 -35 -22 c-66 -41 -186
-83 -237 -83 -26 0 -87 10 -135 22 -86 22 -112 38 -63 38 21 0 25 5 25 29 0
62 36 72 164 45z m2333 -5 c4 -12 16 -41 29 -65 23 -42 23 -44 4 -54 -26 -14
-173 -13 -205 2 -28 13 -30 18 -12 37 10 11 3 12 -41 7 -50 -6 -53 -6 -62 20
l-11 27 -20 -21 c-21 -24 -54 -29 -65 -11 -3 6 1 18 10 27 12 12 32 16 79 14
34 -1 103 7 152 17 120 26 136 26 142 0z m243 -4 c23 -8 62 -15 86 -15 60 0
62 -14 6 -38 -105 -45 -172 -53 -201 -24 -35 34 -34 58 4 80 27 16 55 15 105
-3z m2448 8 c-10 -2 -26 -2 -35 0 -10 3 -2 5 17 5 19 0 27 -2 18 -5z m-11095
-38 c9 -4 17 -11 17 -16 0 -11 -79 -32 -97 -25 -20 8 -63 -4 -63 -17 0 -16 41
-57 57 -57 19 0 16 -9 -9 -29 -24 -20 -17 -41 13 -41 10 0 19 -6 19 -13 0 -8
13 -11 43 -9 50 3 110 -28 105 -56 -4 -21 -77 -22 -126 -1 -29 12 -36 12 -63
-4 -37 -21 -67 -21 -158 -2 -87 18 -126 35 -170 74 l-33 29 25 17 c14 9 42 19
63 22 63 10 109 39 149 94 l37 52 87 -6 c47 -3 94 -9 104 -12z m6444 -18 c4
-8 24 -17 44 -20 20 -3 60 -15 88 -27 60 -26 57 -36 -20 -70 -84 -36 -175 -51
-244 -40 -33 5 -82 12 -108 15 -54 7 -60 28 -9 33 28 3 47 22 22 22 -21 0 -9
18 17 25 15 3 30 10 33 15 5 8 138 59 157 59 7 1 16 -5 20 -12z m-6377 -36 c0
-14 -57 -34 -72 -25 -8 5 -3 12 17 20 36 16 55 17 55 5z m7305 -35 l27 -18
-28 -29 c-32 -34 -29 -35 42 -13 50 16 91 14 80 -5 -3 -5 -18 -12 -33 -16 -15
-3 -31 -11 -34 -17 -13 -20 -129 -37 -129 -18 0 6 7 10 15 10 8 0 15 5 15 11
0 7 -9 9 -22 5 -13 -4 -46 -9 -75 -13 -47 -5 -55 -3 -97 27 -25 18 -43 37 -40
42 3 4 26 20 52 33 41 22 57 25 124 22 51 -2 85 -9 103 -21z m-615 0 c0 -9
-40 -13 -46 -5 -3 5 6 9 20 9 14 0 26 -2 26 -4z m-105 -36 c-3 -5 -13 -10 -21
-10 -8 0 -12 5 -9 10 3 6 13 10 21 10 8 0 12 -4 9 -10z m-967 -42 c10 -10 4
-16 -25 -30 -45 -22 -78 -25 -50 -4 9 7 17 21 17 30 0 19 40 22 58 4z m-5603
-7 c-16 -14 -55 -23 -55 -13 0 12 17 20 45 21 11 1 15 -3 10 -8z m5450 -21
c33 -34 31 -38 -22 -51 -65 -15 -100 -11 -130 16 -24 21 -26 26 -13 35 8 5 31
10 50 10 19 0 42 5 50 10 24 15 34 12 65 -20z m-1809 -172 c-9 -46 -24 -58
-69 -58 -43 0 -66 19 -67 57 0 23 16 28 104 31 38 2 38 2 32 -30z m-206 8 c0
-8 -8 -24 -18 -36 -18 -22 -25 -23 -258 -28 -218 -4 -238 -4 -226 11 17 21 84
33 262 50 202 20 240 20 240 3z m-3966 -177 c-3 -5 -10 -7 -15 -3 -5 3 -7 10
-3 15 3 5 10 7 15 3 5 -3 7 -10 3 -15z m72 -23 c-19 -30 -34 -33 -43 -9 -4 10
2 23 17 35 32 26 49 8 26 -26z m560 -61 c-22 -17 -52 -20 -60 -6 -9 14 5 21
43 21 34 -1 35 -2 17 -15z m-485 -20 c13 -13 32 -25 42 -25 9 0 17 -7 17 -15
0 -37 -97 -88 -125 -65 -19 16 -19 50 -1 75 7 10 11 27 8 37 -7 27 31 23 59
-7z m874 -69 c14 -71 15 -117 2 -148 l-14 -34 -81 1 c-50 1 -87 7 -96 15 -24
19 -20 57 6 66 21 6 21 7 -7 22 l-29 15 22 15 c12 8 22 22 22 32 0 20 27 46
55 52 11 2 41 0 68 -6 36 -7 48 -14 52 -30z m-325 -195 c0 -4 -14 -12 -32 -19
-17 -6 -29 -15 -25 -18 8 -8 -11 -34 -24 -34 -13 0 -11 78 2 82 17 6 79 -3 79
-11z m209 -28 c23 -15 23 -17 6 -30 -11 -7 -36 -13 -58 -13 l-38 0 21 30 c24
34 36 37 69 13z"/>
<path d="M17830 5860 c-85 -10 -200 -24 -255 -30 -55 -7 -145 -14 -200 -16
-472 -14 -672 -30 -737 -59 -11 -4 -18 -3 -18 4 0 6 -11 11 -25 11 -16 0 -25
-6 -25 -16 0 -15 15 -16 158 -9 86 5 225 10 307 11 83 2 173 6 200 8 28 2 106
7 175 11 254 14 598 67 615 95 8 12 -1 12 -195 -10z"/>
<path d="M18150 5764 c-86 -24 -357 -74 -505 -93 -44 -6 -192 -20 -328 -31
-182 -15 -263 -26 -300 -40 -38 -14 -54 -17 -64 -8 -8 6 -29 8 -56 3 -23 -3
-57 -9 -75 -12 -18 -3 -35 -9 -38 -14 -5 -9 203 -14 638 -14 254 0 257 0 278
-23 23 -24 52 -24 178 -1 58 11 74 35 17 26 -37 -6 -100 8 -111 24 -9 15 -7
16 96 33 52 9 133 32 180 51 47 18 104 38 127 44 47 13 75 36 71 59 -4 22 -14
22 -108 -4z m-419 -231 c-8 -15 -10 -15 -11 -2 0 17 10 32 18 25 2 -3 -1 -13
-7 -23z"/>
<path d="M4775 5604 c-35 -16 -98 -32 -150 -39 -84 -11 -88 -13 -61 -24 16 -6
42 -21 57 -32 16 -11 29 -17 30 -12 1 4 2 17 3 28 1 18 9 20 90 23 49 2 127
-1 175 -7 109 -12 261 -3 261 15 0 15 22 20 168 35 116 12 151 29 60 29 -29 0
-118 -5 -199 -10 -133 -9 -224 -5 -344 15 -20 3 -51 -4 -90 -21z"/>
<path d="M9470 5610 c-14 -27 9 -27 41 0 l24 19 -27 1 c-17 0 -31 -7 -38 -20z"/>
<path d="M16467 5589 c7 -7 15 -10 18 -7 3 3 -2 9 -12 12 -14 6 -15 5 -6 -5z"/>
<path d="M17993 5583 c-21 -8 -15 -20 13 -27 32 -9 96 3 88 16 -4 5 -17 8 -30
5 -14 -2 -27 0 -30 4 -6 10 -22 10 -41 2z"/>
<path d="M18395 5505 c-27 -7 -63 -19 -80 -25 -16 -6 -85 -14 -152 -17 -103
-5 -121 -8 -111 -20 17 -21 0 -31 -77 -43 -38 -6 -99 -20 -134 -30 -35 -11
-82 -20 -105 -20 -79 0 -145 -12 -140 -25 4 -9 -16 -16 -63 -25 -71 -13 -123
-34 -123 -50 0 -9 37 -18 100 -22 27 -2 35 -7 35 -23 0 -12 -8 -21 -20 -24
-11 -2 -23 -8 -26 -14 -4 -6 -15 -7 -25 -2 -27 11 -76 6 -93 -10 -10 -9 -22
-10 -47 -3 -19 5 -39 6 -45 3 -16 -10 10 -35 36 -35 13 0 25 -6 27 -12 6 -18
190 -25 413 -16 220 8 277 17 399 62 52 20 104 36 114 36 25 0 130 53 167 86
17 14 25 23 18 20 -6 -4 -116 -29 -245 -57 -198 -44 -250 -52 -345 -53 -72 -1
-116 3 -123 10 -16 16 27 29 160 49 58 9 130 25 161 35 30 10 95 26 145 35 49
9 123 25 166 36 42 10 96 19 121 19 27 0 49 6 57 14 6 8 27 20 46 26 45 15 43
25 -8 36 -52 11 -57 24 -17 48 17 10 29 19 27 21 -2 1 -32 -2 -67 -7 -44 -7
-67 -6 -74 1 -13 13 -9 13 -72 -4z"/>
<path d="M4796 5486 c-20 -31 -14 -46 19 -46 27 0 41 15 24 25 -6 4 -14 16
-18 27 -7 19 -8 19 -25 -6z"/>
<path d="M19810 5482 c0 -13 42 -28 68 -24 13 2 21 9 19 15 -4 14 -87 22 -87
9z"/>
<path d="M16331 5361 c-7 -5 -10 -14 -7 -20 9 -14 106 -15 106 -1 0 6 -11 10
-25 10 -14 0 -25 5 -25 10 0 12 -30 13 -49 1z"/>
<path d="M2370 5350 c-11 -7 -12 -12 -4 -20 8 -8 14 -7 23 4 14 17 1 28 -19
16z"/>
<path d="M13078 5336 c-81 -12 -151 -25 -154 -29 -4 -3 7 -19 22 -35 23 -22
42 -30 87 -36 32 -3 72 -13 89 -22 20 -10 45 -14 72 -10 22 2 67 8 99 12 31 3
60 10 63 15 3 5 53 9 112 9 59 0 127 5 151 11 24 5 114 10 200 11 124 1 161 4
181 17 l25 16 -45 7 c-25 4 -54 10 -65 13 -115 29 -201 37 -435 40 -228 4
-270 2 -402 -19z"/>
<path d="M16453 5353 c-40 -15 33 -39 82 -27 29 7 25 19 -8 20 -12 0 -31 3
-42 6 -11 4 -26 4 -32 1z"/>
<path d="M15716 5332 c-7 -12 45 -32 85 -32 15 0 31 -4 34 -10 9 -15 42 -12
48 4 3 8 0 19 -7 25 -18 15 -152 26 -160 13z"/>
<path d="M15992 5304 c2 -12 16 -16 57 -18 49 -1 51 -1 25 10 -16 6 -42 14
-57 18 -23 6 -28 4 -25 -10z"/>
<path d="M12885 5300 c-3 -5 -1 -10 4 -10 6 0 11 5 11 10 0 6 -2 10 -4 10 -3
0 -8 -4 -11 -10z"/>
<path d="M14062 5294 c-24 -9 -40 -20 -35 -24 13 -13 194 -42 219 -36 13 4 24
13 24 21 0 8 12 18 26 21 24 6 25 8 8 17 -32 18 -194 19 -242 1z"/>
<path d="M19395 5303 c-38 -9 -37 -22 1 -28 22 -4 49 -14 62 -21 30 -19 65 -2
60 29 -3 19 -10 22 -53 24 -27 0 -59 -1 -70 -4z"/>
<path d="M16300 5271 c0 -11 26 -22 34 -14 12 12 5 23 -14 23 -11 0 -20 -4
-20 -9z"/>
<path d="M17226 5272 c-3 -5 0 -14 7 -20 19 -15 57 -24 57 -13 0 5 3 17 7 26
6 16 5 16 -20 1 -24 -16 -26 -16 -35 0 -5 10 -12 12 -16 6z"/>
<path d="M16415 5260 c3 -5 23 -10 43 -10 28 0 33 3 22 10 -20 13 -73 13 -65
0z"/>
<path d="M16555 5260 c-3 -5 -2 -10 4 -10 5 0 13 5 16 10 3 6 2 10 -4 10 -5 0
-13 -4 -16 -10z"/>
<path d="M16640 5250 c0 -22 8 -25 30 -10 13 9 13 11 0 20 -22 15 -30 12 -30
-10z"/>
<path d="M16923 5263 c-27 -9 -11 -21 37 -28 58 -8 196 3 183 15 -9 8 -200 19
-220 13z"/>
<path d="M17322 5249 c1 -12 9 -24 16 -27 9 -3 13 3 10 19 -1 12 -9 24 -16 27
-9 3 -13 -3 -10 -19z"/>
<path d="M16830 5240 c0 -5 4 -10 9 -10 6 0 13 5 16 10 3 6 -1 10 -9 10 -9 0
-16 -4 -16 -10z"/>
<path d="M19472 5179 c-39 -15 -20 -34 39 -37 l54 -2 -30 25 c-33 28 -31 27
-63 14z"/>
<path d="M20078 5078 c-7 -43 1 -68 21 -68 9 0 31 -13 49 -30 18 -16 37 -30
42 -30 21 0 20 23 -2 43 -12 12 -42 44 -64 70 l-42 47 -4 -32z"/>
<path d="M2408 5050 c-21 -21 -38 -41 -38 -45 0 -10 54 -1 110 18 25 9 62 19
83 22 74 12 26 43 -68 43 -45 0 -54 -4 -87 -38z"/>
<path d="M10928 5053 c-49 -2 -88 -8 -88 -14 0 -20 55 -30 123 -24 57 6 67 10
67 26 0 10 -3 18 -7 17 -5 -1 -47 -4 -95 -5z"/>
<path d="M10685 4985 c-16 -8 -42 -14 -57 -15 -51 0 -29 -17 28 -22 69 -6 104
0 104 18 0 11 -31 36 -42 33 -2 0 -16 -7 -33 -14z"/>
<path d="M2452 4908 c6 -16 36 -34 44 -25 9 9 -15 37 -33 37 -8 0 -13 -5 -11
-12z"/>
<path d="M10390 4911 c0 -17 53 -73 59 -62 4 6 22 3 50 -10 24 -10 50 -19 58
-19 26 0 5 17 -44 35 -26 10 -62 28 -80 41 -34 26 -43 29 -43 15z"/>
<path d="M20293 4900 c-17 -7 -23 -18 -23 -39 0 -26 6 -31 63 -54 60 -24 90
-30 132 -28 16 1 14 6 -16 39 -20 20 -43 49 -52 65 -19 29 -58 35 -104 17z"/>
<path d="M19873 4724 c-36 -36 -19 -48 74 -52 l76 -4 -34 41 c-41 49 -77 54
-116 15z"/>
<path d="M19880 4586 c52 -33 174 -86 197 -86 35 0 19 17 -23 25 -45 8 -84 32
-84 51 0 8 -10 14 -24 14 -13 0 -39 3 -57 6 l-34 5 25 -15z"/>
<path d="M1600 4186 c0 -8 5 -18 10 -21 6 -3 10 1 10 9 0 8 -4 18 -10 21 -5 3
-10 -1 -10 -9z"/>
<path d="M20217 4093 c-14 -13 -7 -45 7 -40 8 3 17 1 19 -6 3 -8 7 -6 12 6 11
26 -20 59 -38 40z"/>
<path d="M19685 3889 c-9 -26 -3 -31 47 -46 73 -21 71 10 -3 48 -38 19 -38 19
-44 -2z"/>
<path d="M19701 3494 c-31 -22 -12 -34 52 -34 53 0 64 19 22 38 -34 16 -46 15
-74 -4z"/>
<path d="M15 766 c-24 -17 -13 -46 18 -46 14 0 38 -3 55 -6 27 -6 30 -9 21
-25 -14 -27 14 -36 47 -14 31 20 27 39 -9 43 -15 2 -27 7 -27 12 0 6 -72 50
-83 50 -2 0 -12 -6 -22 -14z"/>
</g>
</svg>
