<?xml version="1.0" standalone="no"?>
<!DOCTYPE svg PUBLIC "-//W3C//DTD SVG 20010904//EN"
 "http://www.w3.org/TR/2001/REC-SVG-20010904/DTD/svg10.dtd">
<svg version="1.0" xmlns="http://www.w3.org/2000/svg"
 width="512.000000pt" height="512.000000pt" viewBox="0 0 512.000000 512.000000"
 preserveAspectRatio="xMidYMid meet">

<g transform="translate(0.000000,512.000000) scale(0.100000,-0.100000)"
fill="#000000" stroke="none">
<path d="M2330 4789 c-1133 -115 -2009 -1082 -2010 -2220 -1 -1032 696 -1929
1694 -2179 181 -45 330 -63 536 -63 367 0 666 67 985 223 582 283 1011 798
1180 1417 75 273 99 624 61 897 -91 646 -444 1204 -990 1567 -265 176 -573
294 -896 344 -128 19 -431 27 -560 14z m550 -338 c147 -25 325 -79 459 -139
644 -288 1088 -927 1130 -1625 33 -561 -162 -1079 -554 -1473 -227 -228 -455
-371 -747 -468 -370 -124 -731 -136 -1103 -36 -424 113 -782 357 -1050 717
-231 310 -355 666 -372 1063 -13 328 53 631 204 930 266 528 752 901 1328
1021 208 43 493 47 705 10z"/>
<path d="M2470 3760 c-217 -15 -373 -82 -510 -220 -91 -91 -134 -156 -181
-270 -32 -79 -61 -180 -51 -180 3 0 89 -12 190 -26 102 -14 190 -23 197 -20 7
2 15 18 18 35 19 93 107 221 190 275 80 53 151 69 271 63 168 -8 277 -61 331
-159 57 -104 32 -244 -62 -344 -21 -23 -94 -91 -163 -150 -172 -149 -254 -235
-284 -297 -34 -71 -55 -184 -63 -333 l-6 -124 196 0 197 0 0 53 c0 68 24 167
56 231 33 66 82 116 174 179 92 62 231 200 289 286 53 78 104 188 121 260 8
32 11 88 8 141 -7 110 -30 162 -127 288 -196 252 -412 338 -791 312z"/>
<path d="M2340 1640 l0 -220 205 0 205 0 0 220 0 220 -205 0 -205 0 0 -220z"/>
</g>
</svg>
